<svg width="35" height="35" viewBox="0 0 35 35" fill="none" xmlns="http://www.w3.org/2000/svg">
<g clip-path="url(#clip0_70_21)">
<path d="M1.45834 5.83337V14.5834H10.2083" stroke="#F7F4FC" stroke-width="3" stroke-linecap="round" stroke-linejoin="round"/>
<path d="M33.5417 29.1666V20.4166H24.7917" stroke="#F7F4FC" stroke-width="3" stroke-linecap="round" stroke-linejoin="round"/>
<path d="M29.8813 13.125C29.1416 11.0349 27.8846 9.16618 26.2275 7.69329C24.5703 6.22039 22.567 5.19129 20.4046 4.70201C18.2421 4.21273 15.991 4.27922 13.8612 4.89526C11.7314 5.51131 9.79235 6.65684 8.22501 8.22497L1.45834 14.5833M33.5417 20.4166L26.775 26.775C25.2077 28.3431 23.2686 29.4886 21.1388 30.1047C19.009 30.7207 16.7579 30.7872 14.5954 30.2979C12.433 29.8086 10.4297 28.7795 8.77257 27.3066C7.11541 25.8338 5.85838 23.9651 5.11876 21.875" stroke="#F7F4FC" stroke-width="3" stroke-linecap="round" stroke-linejoin="round"/>
</g>
<defs>
<clipPath id="clip0_70_21">
<rect width="35" height="35" fill="white"/>
</clipPath>
</defs>
</svg>
