<svg width="35" height="35" viewBox="0 0 35 35" fill="none" xmlns="http://www.w3.org/2000/svg">
<g clip-path="url(#clip0_70_83)">
<path d="M17.5 21.875C19.9162 21.875 21.875 19.9162 21.875 17.5C21.875 15.0838 19.9162 13.125 17.5 13.125C15.0838 13.125 13.125 15.0838 13.125 17.5C13.125 19.9162 15.0838 21.875 17.5 21.875Z" stroke="#F7F4FC" stroke-width="3" stroke-linecap="round" stroke-linejoin="round"/>
<path d="M28.2917 21.875C28.0976 22.3149 28.0397 22.8028 28.1254 23.2759C28.2112 23.749 28.4368 24.1855 28.773 24.5292L28.8605 24.6167C29.1316 24.8876 29.3468 25.2093 29.4935 25.5633C29.6403 25.9174 29.7159 26.297 29.7159 26.6802C29.7159 27.0635 29.6403 27.4431 29.4935 27.7972C29.3468 28.1512 29.1316 28.4729 28.8605 28.7438C28.5896 29.015 28.2679 29.2301 27.9138 29.3769C27.5597 29.5237 27.1802 29.5992 26.7969 29.5992C26.4136 29.5992 26.0341 29.5237 25.68 29.3769C25.3259 29.2301 25.0043 29.015 24.7334 28.7438L24.6459 28.6563C24.3022 28.3201 23.8656 28.0946 23.3926 28.0088C22.9195 27.923 22.4316 27.9809 21.9917 28.175C21.5604 28.3599 21.1925 28.6669 20.9334 29.0581C20.6743 29.4494 20.5352 29.9079 20.5334 30.3771V30.625C20.5334 31.3986 20.2261 32.1405 19.6791 32.6874C19.1321 33.2344 18.3903 33.5417 17.6167 33.5417C16.8432 33.5417 16.1013 33.2344 15.5543 32.6874C15.0073 32.1405 14.7 31.3986 14.7 30.625V30.4938C14.6887 30.0111 14.5325 29.5429 14.2516 29.1502C13.9707 28.7575 13.5782 28.4584 13.125 28.2917C12.6852 28.0976 12.1973 28.0397 11.7242 28.1254C11.2511 28.2112 10.8146 28.4368 10.4709 28.773L10.3834 28.8605C10.1125 29.1316 9.79082 29.3468 9.43674 29.4935C9.08266 29.6403 8.70313 29.7159 8.31983 29.7159C7.93654 29.7159 7.557 29.6403 7.20292 29.4935C6.84885 29.3468 6.52717 29.1316 6.25629 28.8605C5.98511 28.5896 5.76998 28.2679 5.6232 27.9138C5.47642 27.5597 5.40087 27.1802 5.40087 26.7969C5.40087 26.4136 5.47642 26.0341 5.6232 25.68C5.76998 25.3259 5.98511 25.0043 6.25629 24.7334L6.34379 24.6459C6.67999 24.3022 6.90552 23.8656 6.9913 23.3926C7.07707 22.9195 7.01917 22.4316 6.82504 21.9917C6.64018 21.5604 6.33323 21.1925 5.94197 20.9334C5.55071 20.6743 5.09223 20.5352 4.62296 20.5334H4.37504C3.60149 20.5334 2.85963 20.2261 2.31265 19.6791C1.76566 19.1321 1.45837 18.3903 1.45837 17.6167C1.45837 16.8432 1.76566 16.1013 2.31265 15.5543C2.85963 15.0073 3.60149 14.7 4.37504 14.7H4.50629C4.98899 14.6887 5.45713 14.5325 5.84985 14.2516C6.24257 13.9707 6.54171 13.5782 6.70837 13.125C6.9025 12.6852 6.96041 12.1973 6.87463 11.7242C6.78885 11.2511 6.56332 10.8146 6.22712 10.4709L6.13962 10.3834C5.86844 10.1125 5.65331 9.79082 5.50653 9.43674C5.35975 9.08266 5.2842 8.70313 5.2842 8.31983C5.2842 7.93654 5.35975 7.557 5.50653 7.20292C5.65331 6.84885 5.86844 6.52717 6.13962 6.25629C6.4105 5.98511 6.73218 5.76998 7.08626 5.6232C7.44033 5.47642 7.81987 5.40087 8.20317 5.40087C8.58646 5.40087 8.966 5.47642 9.32007 5.6232C9.67415 5.76998 9.99583 5.98511 10.2667 6.25629L10.3542 6.34379C10.6979 6.67999 11.1344 6.90552 11.6075 6.9913C12.0806 7.07707 12.5685 7.01917 13.0084 6.82504H13.125C13.5564 6.64018 13.9242 6.33323 14.1833 5.94197C14.4425 5.55071 14.5815 5.09223 14.5834 4.62296V4.37504C14.5834 3.60149 14.8907 2.85963 15.4376 2.31265C15.9846 1.76566 16.7265 1.45837 17.5 1.45837C18.2736 1.45837 19.0155 1.76566 19.5624 2.31265C20.1094 2.85963 20.4167 3.60149 20.4167 4.37504V4.50629C20.4186 4.97556 20.5576 5.43405 20.8167 5.8253C21.0758 6.21656 21.4437 6.52351 21.875 6.70837C22.3149 6.9025 22.8028 6.96041 23.2759 6.87463C23.749 6.78885 24.1855 6.56332 24.5292 6.22712L24.6167 6.13962C24.8876 5.86844 25.2093 5.65331 25.5633 5.50653C25.9174 5.35975 26.297 5.2842 26.6802 5.2842C27.0635 5.2842 27.4431 5.35975 27.7972 5.50653C28.1512 5.65331 28.4729 5.86844 28.7438 6.13962C29.015 6.4105 29.2301 6.73218 29.3769 7.08626C29.5237 7.44033 29.5992 7.81987 29.5992 8.20317C29.5992 8.58646 29.5237 8.966 29.3769 9.32007C29.2301 9.67415 29.015 9.99583 28.7438 10.2667L28.6563 10.3542C28.3201 10.6979 28.0946 11.1344 28.0088 11.6075C27.923 12.0806 27.9809 12.5685 28.175 13.0084V13.125C28.3599 13.5564 28.6669 13.9242 29.0581 14.1833C29.4494 14.4425 29.9079 14.5815 30.3771 14.5834H30.625C31.3986 14.5834 32.1405 14.8907 32.6874 15.4376C33.2344 15.9846 33.5417 16.7265 33.5417 17.5C33.5417 18.2736 33.2344 19.0155 32.6874 19.5624C32.1405 20.1094 31.3986 20.4167 30.625 20.4167H30.4938C30.0245 20.4186 29.566 20.5576 29.1748 20.8167C28.7835 21.0758 28.4766 21.4437 28.2917 21.875V21.875Z" stroke="#F7F4FC" stroke-width="3" stroke-linecap="round" stroke-linejoin="round"/>
</g>
<defs>
<clipPath id="clip0_70_83">
<rect width="35" height="35" fill="white"/>
</clipPath>
</defs>
</svg>
